<svg xmlns="http://www.w3.org/2000/svg" viewBox="0 0 100 100" width="32" height="32">
  <rect width="100" height="100" fill="#224024" />
  <path d="M50,20 C45,20 35,25 30,30 C25,35 20,45 20,50 C20,55 25,65 30,70 C35,75 45,80 50,80 C55,80 65,75 70,70 C75,65 80,55 80,50 C80,45 75,35 70,30 C65,25 55,20 50,20 Z M50,25 C53,25 57,27 60,30 C63,33 65,37 65,40 C65,43 63,47 60,50 C57,53 53,55 50,55 C47,55 43,53 40,50 C37,47 35,43 35,40 C35,37 37,33 40,30 C43,27 47,25 50,25 Z" fill="white" />
  <circle cx="30" cy="30" r="8" fill="#224024" />
  <circle cx="30" cy="30" r="5" fill="white" />
  <circle cx="70" cy="30" r="8" fill="#224024" />
  <circle cx="70" cy="30" r="5" fill="white" />
  <circle cx="30" cy="70" r="8" fill="#224024" />
  <circle cx="30" cy="70" r="5" fill="white" />
  <circle cx="70" cy="70" r="8" fill="#224024" />
  <circle cx="70" cy="70" r="5" fill="white" />
</svg> 